<svg width="22" height="20" viewBox="0 0 22 20" fill="none" xmlns="http://www.w3.org/2000/svg">
<g id="Layer 2">
<g id="Layer 1">
<path id="Vector" d="M12.9179 13.8532C12.6514 13.3979 12.2589 13.1488 11.8119 13.1488C11.5663 13.1541 11.3258 13.2201 11.1119 13.3409L10.8769 13.4652C10.4427 13.6944 9.99376 13.932 9.56789 14.1933C9.49802 14.2425 9.41615 14.2719 9.33094 14.2785C9.24321 14.2785 9.16508 14.2285 9.07478 14.1158C8.84872 13.8225 8.61305 13.5292 8.38507 13.2449C7.89195 12.6301 7.38155 11.9935 6.93647 11.3307C6.00713 9.94017 5.29334 8.41716 4.81929 6.81327C4.72579 6.49883 4.78407 6.35089 5.05944 6.20552C5.58458 5.92887 6.09306 5.60098 6.56824 5.28974C7.1747 4.89205 7.33672 4.22987 6.98706 3.60292C6.44336 2.63334 5.8734 1.65801 5.32201 0.714051L5.2996 0.676268C5.07289 0.277936 4.71619 0.0640405 4.18145 0H4.16416L4.14815 0.00704445C4.07514 0.0397051 3.99829 0.0710849 3.92465 0.0999032C3.7546 0.16066 3.59146 0.239226 3.43794 0.334291C2.42866 1.00928 1.52825 1.63047 0.684198 2.23373C0.515903 2.36382 0.3967 2.54714 0.346064 2.75374C0.103351 3.85204 0.1501 5.04959 0.490155 6.41301C1.57884 10.7863 3.79528 14.6454 7.0748 17.8833C8.10585 18.9009 9.15099 19.5785 10.2698 19.955C10.3628 19.9853 10.4601 20.0005 10.558 19.9998C10.6608 20.002 10.7629 19.9823 10.8577 19.9422C11.9662 19.4363 13.035 18.9176 13.9406 18.4789C14.3248 18.2925 14.581 18.0204 14.6815 17.6931C14.7821 17.3659 14.7257 16.9957 14.515 16.6243C14.0437 15.793 13.5211 14.8862 12.9179 13.8532Z" fill="#7E7E7E"/>
<path id="Vector_2" d="M21.8047 4.37076C21.8034 4.30024 21.7977 4.22987 21.7875 4.16007C21.783 4.12293 21.7785 4.08322 21.774 4.03968L21.7644 3.93465L21.6754 3.99229C21.6286 4.02238 21.5877 4.04928 21.5473 4.07298C21.4749 4.11973 21.416 4.15751 21.3552 4.19786L19.6716 5.35058C17.6863 6.71016 15.6319 8.11521 13.6172 9.50553C13.4603 9.61632 13.3219 9.67011 13.1939 9.67011C13.0447 9.66315 12.9018 9.60811 12.7866 9.51322C12.3383 9.18981 11.8746 8.87281 11.4257 8.57118C11.2374 8.4431 11.0485 8.31502 10.8609 8.18694L7.46032 5.85842L7.4251 5.8802C7.29253 5.96153 7.16189 6.04286 7.03317 6.12291C6.70913 6.32464 6.40365 6.51548 6.08665 6.69928C5.89453 6.81007 5.84842 6.93687 5.92591 7.14756C6.68837 9.25438 7.81775 11.2096 9.26178 12.9227C9.35144 13.0284 9.43725 13.0777 9.53267 13.0777C9.61703 13.0729 9.69839 13.0447 9.7677 12.9964C9.96494 12.8773 10.1724 12.7665 10.3735 12.6589L10.6143 12.5308C10.9838 12.3206 11.4003 12.2069 11.8253 12.2004C12.6175 12.2004 13.3059 12.632 13.7638 13.4171C13.8554 13.5734 13.9451 13.7303 14.0347 13.8872C14.2217 14.2138 14.4145 14.5519 14.6181 14.8766C14.6963 15.0008 14.8743 15.1328 15.0197 15.1328C16.1365 15.1411 17.2668 15.1449 18.3792 15.1449C19.1887 15.1449 20.0078 15.1449 20.8128 15.1385C21.4346 15.1385 21.8054 14.7543 21.806 14.1203C21.8067 10.7723 21.806 7.45559 21.8047 4.37076Z" fill="#7E7E7E"/>
<path id="Vector_3" d="M8.24354 5.25132C8.87626 5.67719 9.51602 6.1165 10.1347 6.54109L10.7341 6.95287L13.2009 8.64354L20.9729 3.31281H8.04501V3.37685C8.04501 3.5235 8.04821 3.6676 8.05141 3.8072C8.06578 4.12346 8.05872 4.44034 8.03028 4.75564C8.00274 4.999 8.05654 5.12324 8.24354 5.25132Z" fill="#7E7E7E"/>
</g>
</g>
</svg>
