<svg width="20" height="20" viewBox="0 0 20 20" fill="none" xmlns="http://www.w3.org/2000/svg">
<g id="Layer 2">
<g id="Layer 1">
<path id="Vector" d="M3.92869 5.01158H12.3069C11.9638 5.4703 11.5026 5.89652 11.2907 6.42274C11.0789 6.94896 11.1139 7.58142 11.0364 8.20263H5.3836C5.31048 8.20263 5.23736 8.20263 5.16486 8.20263C4.83176 8.20888 4.64177 8.34199 4.64177 8.56885C4.64177 8.79571 4.82176 8.92258 5.16361 8.92446C5.45297 8.92446 5.74295 8.92446 6.07168 8.92446V9.31381C6.07168 12.3136 6.07168 15.3134 6.07168 18.3132C6.07168 18.417 6.04106 18.5445 6.08856 18.6195C6.16355 18.7382 6.28792 18.8913 6.40104 18.9001C6.51415 18.9088 6.66977 18.7788 6.74726 18.6682C6.80976 18.5795 6.79101 18.4282 6.79101 18.3051C6.79351 16.8677 6.79351 15.4303 6.79101 13.9929V13.5942H10.6864V16.4265H9.33522C8.96025 16.4265 8.58527 16.419 8.2103 16.4327C7.99468 16.4408 7.86282 16.5696 7.86969 16.7965C7.87594 17.0064 8.00031 17.1146 8.20717 17.1302C8.25904 17.1339 8.31091 17.1302 8.36279 17.1302C10.6643 17.1302 12.966 17.1302 15.268 17.1302C15.7892 17.1302 16.0667 16.8602 16.0673 16.3496C16.0706 14.6314 16.0706 12.913 16.0673 11.1943C16.0673 11.1531 16.0673 11.1112 16.0673 11.0693C16.0529 10.8443 15.9179 10.7143 15.7079 10.7187C15.498 10.7231 15.3648 10.8512 15.3655 11.0831C15.3655 11.5518 15.3655 12.0205 15.3655 12.4886C15.3655 12.6005 15.3655 12.7117 15.3655 12.8423H6.81976V8.92383H7.16536C8.68589 8.92383 10.2064 8.9357 11.7276 8.91696C12.2787 8.91916 12.8288 8.86767 13.37 8.76322C13.7104 8.68292 14.0235 8.51386 14.2774 8.27325C15.3292 7.26394 16.3435 6.21588 17.3841 5.19469C17.51 5.08264 17.6701 5.01655 17.8384 5.00721C18.4009 4.98471 18.9634 4.99596 19.5258 4.99971C19.8789 4.99971 19.9995 5.11782 19.9995 5.46593C19.9995 10.1527 19.9995 14.8399 19.9995 19.5275C19.9995 19.9025 19.8802 20 19.4371 20H2.34504C2.2613 20 2.17818 20 2.09506 19.9962C1.11825 19.9425 0.257053 19.2263 0.0583157 18.302C-0.234166 16.9414 0.740772 15.7546 2.19693 15.7021C2.43566 15.6934 2.67627 15.7059 2.91501 15.694C3.47747 15.6653 3.8837 15.2622 3.92432 14.6991C3.93244 14.5853 3.92807 14.4704 3.92807 14.3554C3.92807 11.3768 3.92807 8.39782 3.92807 5.41843L3.92869 5.01158Z" fill="#7E7E7E"/>
<path id="Vector_2" d="M-0.000434875 15.9634V15.6509C-0.000434875 11.1841 -0.000434875 6.71668 -0.000434875 2.24863C-0.000434875 1.20495 0.533906 0.391876 1.49384 0.123768C1.94194 -0.00559898 2.43691 0.0206493 2.91313 0.0212743C3.00875 0.0212743 3.12624 0.208762 3.19186 0.333754C3.23498 0.416249 3.20624 0.537491 3.20624 0.64186C3.20624 5.21282 3.20624 9.78357 3.20624 14.3541C3.20624 14.9516 3.15811 15.0197 2.57128 14.9947C1.60321 14.9528 0.740768 15.1816 -0.000434875 15.9634Z" fill="#7E7E7E"/>
<path id="Vector_3" d="M13.9074 7.56392L12.4425 6.08464L16.2979 2.23926L17.7728 3.70979C16.4879 4.99054 15.1994 6.27525 13.9074 7.56392Z" fill="#7E7E7E"/>
<path id="Vector_4" d="M15.3467 13.5892V16.4015H11.4501V13.5892H15.3467Z" fill="#7E7E7E"/>
<path id="Vector_5" d="M17.7891 0.58624C17.9597 0.43625 18.1397 0.28126 18.3171 0.12377C18.5046 -0.0437196 18.6921 -0.0412198 18.8715 0.131269C19.206 0.459582 19.5373 0.790394 19.8652 1.12371C20.0252 1.28745 20.0527 1.47493 19.8964 1.65367C19.7402 1.83241 19.5496 2.0074 19.3771 2.18114L17.7891 0.58624Z" fill="#7E7E7E"/>
<path id="Vector_6" d="M18.3259 3.18232C17.8303 2.68235 17.326 2.17239 16.8304 1.66992L17.2972 1.1862L18.7971 2.7011L18.3259 3.18232Z" fill="#7E7E7E"/>
<path id="Vector_7" d="M11.9225 6.6671L13.2931 8.07138C12.8687 8.11263 12.4469 8.162 12.0238 8.19013C11.8276 8.20325 11.7882 8.05389 11.8026 7.89265C11.8382 7.50205 11.8788 7.11207 11.9225 6.6671Z" fill="#7E7E7E"/>
</g>
</g>
</svg>
