<svg width="22" height="20" viewBox="0 0 22 20" fill="none" xmlns="http://www.w3.org/2000/svg">
<g id="Layer 2">
<g id="Layer 1">
<path id="Vector" d="M20.8995 14.9544C20.4208 12.9558 18.8084 11.6642 16.7926 11.6642C16.5375 11.6653 16.2828 11.6859 16.0308 11.7259C16.0218 11.7268 16.0127 11.7268 16.0037 11.7259C15.9272 11.7246 15.8533 11.6981 15.7934 11.6506C13.7042 9.57131 11.5299 7.40193 9.33888 5.19739C9.29206 5.13059 9.26903 5.05 9.2735 4.96855C9.27658 4.82606 9.28892 4.67864 9.30064 4.53677C9.31933 4.35231 9.3286 4.16703 9.3284 3.98163C9.29385 1.82397 7.38478 7.88514e-06 5.15988 7.88514e-06C4.68572 -0.000954946 4.21552 0.0862667 3.77326 0.257225C3.49753 0.363319 3.31742 0.550217 3.26622 0.782761C3.21503 1.0153 3.29953 1.26327 3.50679 1.47854L3.65174 1.63028C3.86455 1.85357 4.08352 2.08488 4.32346 2.29029C4.5264 2.46423 4.58068 2.62276 4.53257 2.89478L4.52578 2.93549C4.4789 3.19887 4.45361 3.34383 4.39255 3.40366C4.33148 3.46349 4.18344 3.49125 3.91451 3.53936L3.86948 3.54738C3.81881 3.55676 3.76742 3.56172 3.71589 3.56218C3.55058 3.56218 3.42783 3.5005 3.2909 3.34444C3.09845 3.12732 2.88687 2.92315 2.68209 2.72762L2.50259 2.55367C2.30891 2.36431 2.09919 2.26376 1.89502 2.26376C1.5903 2.26376 1.34296 2.48212 1.21651 2.8627C1.13634 3.113 1.07895 3.37003 1.04503 3.63065C0.965701 4.21698 1.01223 4.81348 1.18151 5.38041C1.3508 5.94735 1.63896 6.4717 2.02678 6.91853C2.41461 7.36537 2.89321 7.72442 3.43069 7.97178C3.96817 8.21914 4.55219 8.34913 5.14384 8.35308C5.39792 8.35286 5.65146 8.32953 5.90131 8.28337C5.9348 8.27644 5.96888 8.27273 6.00308 8.27227C6.07957 8.27227 6.15112 8.29263 6.24981 8.39194C8.08179 10.2325 10.2481 12.4013 12.4236 14.5602C12.695 14.8298 12.7937 14.9883 12.6889 15.2745C12.6537 15.3994 12.6457 15.5305 12.6654 15.6588C12.6691 15.7106 12.6734 15.7593 12.6734 15.805C12.6657 16.353 12.767 16.8971 12.9715 17.4056C13.176 17.9142 13.4797 18.3769 13.8647 18.767C14.2498 19.157 14.7086 19.4666 15.2144 19.6776C15.7203 19.8887 16.263 19.997 16.8111 19.9963C17.2144 19.9957 17.6155 19.9384 18.0028 19.8261C18.5154 19.678 18.6776 19.4338 18.7239 19.2555C18.7702 19.0772 18.7461 18.7886 18.3748 18.4166C18.3014 18.3432 18.2286 18.268 18.1558 18.1933C17.9862 18.0194 17.811 17.8399 17.6259 17.6739C17.4582 17.5241 17.4119 17.3933 17.4508 17.1743L17.4576 17.1361C17.5094 16.8431 17.5377 16.6815 17.6087 16.6124C17.6796 16.5433 17.848 16.5137 18.1527 16.4625L18.1823 16.4569C18.2243 16.4494 18.2668 16.4455 18.3094 16.4452C18.4457 16.4452 18.5438 16.4946 18.6585 16.6204C18.9053 16.8912 19.1828 17.1694 19.5572 17.5222C19.6973 17.6608 19.8852 17.7405 20.0822 17.7449C20.3696 17.7449 20.6188 17.5598 20.7317 17.2662C21.0238 16.5311 21.0824 15.7239 20.8995 14.9544Z" fill="#7E7E7E"/>
<path id="Vector_2" d="M3.26498 14.6725L6.31951 17.7406L10.2783 13.7812L7.20897 10.7285L3.26498 14.6725Z" fill="#7E7E7E"/>
<path id="Vector_3" d="M18.3618 5.72601L15.2993 2.64805L11.7285 6.21454L14.7892 9.29683L18.3618 5.72601Z" fill="#7E7E7E"/>
<path id="Vector_4" d="M19.1711 4.95868C19.3253 4.80529 19.481 4.65129 19.638 4.49668C20.0205 4.11918 20.4159 3.72873 20.7971 3.33457C21.0759 3.04652 21.0678 2.65606 20.7779 2.35999C20.0933 1.66544 19.374 0.94437 18.6388 0.222682C18.5069 0.0853655 18.3264 0.00538918 18.1361 7.62939e-06C17.9689 0.00066555 17.8086 0.0671451 17.6901 0.185056C17.2867 0.571806 16.8882 0.972744 16.5064 1.35703C16.3522 1.51247 16.198 1.66544 16.0469 1.81965L15.9599 1.91217L19.0835 5.04565L19.1711 4.95868Z" fill="#7E7E7E"/>
<path id="Vector_5" d="M2.5945 15.5743C2.56787 15.5942 2.54667 15.6205 2.53282 15.6508C2.04388 16.7672 1.55494 17.8843 1.066 19.002C1.00182 19.1317 0.981203 19.2786 1.00721 19.421C1.03321 19.5633 1.10445 19.6935 1.21034 19.7921C1.27267 19.8569 1.34725 19.9086 1.42974 19.9443C1.51222 19.98 1.60098 19.9989 1.69085 20C1.79726 19.9986 1.90224 19.9753 1.99926 19.9315C2.30932 19.7971 2.61917 19.662 2.92882 19.5263C3.1262 19.4391 3.32379 19.3527 3.52159 19.2672L4.78177 18.7182L5.56637 18.3771L2.68024 15.4861L2.5945 15.5743Z" fill="#7E7E7E"/>
</g>
</g>
</svg>
