<svg width="40" height="40" viewBox="0 0 40 40" fill="none" xmlns="http://www.w3.org/2000/svg">
<rect width="40" height="40" rx="20" fill="#171515"/>
<path d="M15.5241 10.31C16.2751 10.5644 16.9895 10.9161 17.6491 11.356C18.5807 11.1179 19.5386 10.9983 20.5001 11C21.4931 11 22.4511 11.124 23.3491 11.355C24.0085 10.9155 24.7225 10.5642 25.4731 10.31C26.1701 10.073 27.1631 9.689 27.7531 10.342C28.1531 10.786 28.2531 11.53 28.3241 12.098C28.4041 12.732 28.4231 13.558 28.2131 14.378C29.0161 15.415 29.5001 16.652 29.5001 18C29.5001 20.042 28.3941 21.815 26.7571 23.043C25.9693 23.6265 25.0955 24.084 24.1671 24.399C24.3811 24.889 24.5001 25.431 24.5001 26V29C24.5001 29.2652 24.3947 29.5196 24.2072 29.7071C24.0197 29.8946 23.7653 30 23.5001 30H17.5001C17.2349 30 16.9805 29.8946 16.793 29.7071C16.6055 29.5196 16.5001 29.2652 16.5001 29V28.009C15.5451 28.126 14.7441 28.022 14.0631 27.733C13.3511 27.431 12.8551 26.963 12.4821 26.515C12.1281 26.091 11.7421 25.135 11.1841 24.949C11.0595 24.9075 10.9443 24.8419 10.845 24.7558C10.7457 24.6698 10.6644 24.5651 10.6056 24.4476C10.4869 24.2104 10.4673 23.9357 10.5511 23.684C10.6349 23.4323 10.8153 23.2242 11.0525 23.1055C11.2897 22.9868 11.5644 22.9672 11.8161 23.051C12.4821 23.273 12.9161 23.753 13.2131 24.139C13.6931 24.759 14.0831 25.569 14.8431 25.892C15.1561 26.025 15.6151 26.112 16.3331 26.014L16.5001 25.98C16.502 25.4358 16.6153 24.8977 16.8331 24.399C15.9047 24.084 15.0309 23.6265 14.2431 23.043C12.6061 21.815 11.5001 20.043 11.5001 18C11.5001 16.654 11.9831 15.418 12.7841 14.382C12.5741 13.562 12.5921 12.734 12.6721 12.099L12.6771 12.061C12.7501 11.479 12.8351 10.794 13.2431 10.342C13.8331 9.689 14.8271 10.074 15.5231 10.311L15.5241 10.31Z" fill="#FEFEFE"/>
</svg>
