<svg width="40" height="40" viewBox="0 0 40 40" fill="none" xmlns="http://www.w3.org/2000/svg">
<rect width="40" height="40" rx="20" fill="#404040"/>
<path d="M13.5855 14.289C14.7939 14.289 15.7735 13.3094 15.7735 12.101C15.7735 10.8926 14.7939 9.913 13.5855 9.913C12.3771 9.913 11.3975 10.8926 11.3975 12.101C11.3975 13.3094 12.3771 14.289 13.5855 14.289Z" fill="#FEFEFE"/>
<path d="M17.8395 15.947V28.086H21.6085V22.083C21.6085 20.499 21.9065 18.965 23.8705 18.965C25.8075 18.965 25.8315 20.776 25.8315 22.183V28.087H29.6025V21.43C29.6025 18.16 28.8985 15.647 25.0765 15.647C23.2415 15.647 22.0115 16.654 21.5085 17.607H21.4575V15.947H17.8395ZM11.6975 15.947H15.4725V28.086H11.6975V15.947Z" fill="#FEFEFE"/>
</svg>
