<svg width="40" height="40" viewBox="0 0 40 40" fill="none" xmlns="http://www.w3.org/2000/svg">
<rect width="40" height="40" rx="20" fill="#3C90DE"/>
<path d="M30 15.535V25C30 25.7652 29.7077 26.5015 29.1827 27.0583C28.6578 27.615 27.9399 27.9501 27.176 27.995L27 28H13C12.2348 28 11.4985 27.7077 10.9417 27.1827C10.385 26.6578 10.0499 25.9399 10.005 25.176L10 25V15.535L19.445 21.832L19.561 21.898C19.6977 21.9648 19.8478 21.9995 20 21.9995C20.1522 21.9995 20.3023 21.9648 20.439 21.898L20.555 21.832L30 15.535Z" fill="#FEFEFE"/>
<path d="M27 12C28.08 12 29.027 12.57 29.555 13.427L20 19.797L10.445 13.427C10.6957 13.0198 11.0402 12.6784 11.4497 12.4314C11.8592 12.1844 12.3218 12.0389 12.799 12.007L13 12H27Z" fill="#FEFEFE"/>
</svg>
