<svg width="40" height="40" viewBox="0 0 40 40" fill="none" xmlns="http://www.w3.org/2000/svg">
<rect width="40" height="40" rx="20" fill="#2BB860"/>
<path d="M20.5 9.99999C26.023 9.99999 30.5 14.477 30.5 20C30.5 25.523 26.023 30 20.5 30C18.7328 30.0028 16.9967 29.5352 15.47 28.645L10.504 30L11.856 25.032C10.9651 23.5049 10.4971 21.768 10.5 20C10.5 14.477 14.977 9.99999 20.5 9.99999ZM17.092 15.3L16.892 15.308C16.7625 15.3159 16.636 15.3499 16.52 15.408C16.4115 15.4694 16.3125 15.5462 16.226 15.636C16.106 15.749 16.038 15.847 15.965 15.942C15.5951 16.4229 15.396 17.0133 15.399 17.62C15.401 18.11 15.529 18.587 15.729 19.033C16.138 19.935 16.811 20.89 17.699 21.775C17.913 21.988 18.123 22.202 18.349 22.401C19.4524 23.3725 20.7673 24.073 22.189 24.447L22.757 24.534C22.942 24.544 23.127 24.53 23.313 24.521C23.6043 24.506 23.8886 24.4271 24.146 24.29C24.277 24.2225 24.4048 24.1491 24.529 24.07C24.529 24.07 24.572 24.042 24.654 23.98C24.789 23.88 24.872 23.809 24.984 23.692C25.067 23.606 25.139 23.505 25.194 23.39C25.272 23.227 25.35 22.916 25.382 22.657C25.406 22.459 25.399 22.351 25.396 22.284C25.392 22.177 25.303 22.066 25.206 22.019L24.624 21.758C24.624 21.758 23.754 21.379 23.222 21.137C23.1663 21.1127 23.1067 21.0988 23.046 21.096C22.9776 21.089 22.9085 21.0967 22.8433 21.1186C22.7781 21.1405 22.7183 21.1761 22.668 21.223C22.663 21.221 22.596 21.278 21.873 22.154C21.8315 22.2098 21.7744 22.2519 21.7088 22.275C21.6433 22.2982 21.5723 22.3013 21.505 22.284C21.4399 22.2665 21.376 22.2445 21.314 22.218C21.19 22.166 21.147 22.146 21.062 22.11C20.4881 21.8595 19.9567 21.5211 19.487 21.107C19.361 20.997 19.244 20.877 19.124 20.761C18.7306 20.3842 18.3877 19.958 18.104 19.493L18.045 19.398C18.0026 19.3342 17.9684 19.2653 17.943 19.193C17.905 19.046 18.004 18.928 18.004 18.928C18.004 18.928 18.247 18.662 18.36 18.518C18.47 18.378 18.563 18.242 18.623 18.145C18.741 17.955 18.778 17.76 18.716 17.609C18.436 16.925 18.146 16.244 17.848 15.568C17.789 15.434 17.614 15.338 17.455 15.319C17.401 15.313 17.347 15.307 17.293 15.303C17.1587 15.2963 17.0241 15.2977 16.89 15.307L17.091 15.299L17.092 15.3Z" fill="#FEFEFE"/>
</svg>
